# xmcd
#
# Track frame offsets:
# 180
# 18775
# 31842
# 51610
# 63492
# 76307
# 95958
# 108946
# 121505
# 135109
# 147415
# 159485
# 175081
# 189365
# 202140
# 213187
# 232529
# 248056
#
# Disc length: 3497 seconds
#
#
# Revision: 0
# Processed by: cddbd v1.5.2PL0 Copyright (c) Steve Scherf et al.
# Submitted via: FreeRIP 2.944 
#
DISCID=e60da712
DTITLE=Elis Regina - Elis, o Mito
DYEAR=1900
DGENRE=Other
TTITLE0=Romaria
TTITLE1=Águas De Março
TTITLE2=Como Nossos Pais
TTITLE3=Madalena
TTITLE4=Atrás Da Porta
TTITLE5=Dois Pra Lá, Dois Pra Cá
TTITLE6=Casa No Campo
TTITLE7=Arrastão
TTITLE8=Fascinação
TTITLE9=Nada Será Como Antes
TTITLE10=É Com Esse Que Vou
TTITLE11=Vou Deitar E rolar
TTITLE12=O Mestre Sala Dos Mares
TTITLE13=Casa Forte
TTITLE14=Upa Neguinho
TTITLE15=Presciso Aprender A Ser Só
TTITLE16=Aquarela Do Brasil
TTITLE17=Me Deixas Louca
EXTD=
EXTT0=
EXTT1=
EXTT2=
EXTT3=
EXTT4=
EXTT5=
EXTT6=
EXTT7=
EXTT8=
EXTT9=
EXTT10=
EXTT11=
EXTT12=
EXTT13=
EXTT14=
EXTT15=
EXTT16=
EXTT17=
PLAYORDER=
